<?xml version="1.0" encoding="utf-8"?>
<!-- Generator: Adobe Illustrator 20.1.0, SVG Export Plug-In . SVG Version: 6.00 Build 0)  -->
<svg version="1.1" id="Слой_1" xmlns="http://www.w3.org/2000/svg" xmlns:xlink="http://www.w3.org/1999/xlink" x="0px" y="0px"
	 width="1200px" height="1200px" viewBox="0 0 1200 1200" style="enable-background:new 0 0 1200 1200;" xml:space="preserve">
<style type="text/css">
	.st0{fill:#4CAA3C;}
</style>
<g>
	<g>
		<path class="st0" d="M462.919,473.038h-58.534c-50.308,0-91.237-40.929-91.237-91.237s40.929-91.237,91.237-91.237h58.534v-74.748
			h-58.534c-91.524,0-165.985,74.46-165.985,165.985s74.46,165.985,165.985,165.985h58.534V473.038z"/>
		<path class="st0" d="M741.301,215.817H510.566v74.748h230.734c50.308,0,91.237,40.929,91.237,91.237s-40.928,91.237-91.237,91.237
			H510.566v74.748h230.734c91.524,0,165.985-74.46,165.985-165.985S832.825,215.817,741.301,215.817z"/>
	</g>
	<g>
		<path class="st0" d="M855.621,642.179H510.566v74.748h345.055c50.308,0,91.237,40.928,91.237,91.237
			c0,50.308-40.928,91.237-91.237,91.237H510.566v74.748h345.055c91.524,0,165.985-74.46,165.985-165.985
			S947.146,642.179,855.621,642.179z"/>
		<path class="st0" d="M462.919,899.4h-58.534c-50.308,0-91.237-40.928-91.237-91.237c0-50.308,40.929-91.237,91.237-91.237h58.534
			v-74.748h-58.534c-91.524,0-165.985,74.46-165.985,165.985s74.46,165.985,165.985,165.985h58.534V899.4z"/>
	</g>
	<g>
		<path class="st0" d="M642.293,1023.727c-6.155,43.75-43.816,77.525-89.237,77.525c-49.702,0-90.137-40.436-90.137-90.137V188.885
			c0-49.702,40.436-90.137,90.137-90.137c49.702,0,90.137,40.436,90.137,90.137v101.679h74.748V188.885
			C717.942,97.968,643.974,24,553.056,24S388.171,97.968,388.171,188.885v822.229c0,90.918,73.968,164.885,164.886,164.885
			c86.675,0,157.944-67.225,164.407-152.273H642.293z"/>
		<rect x="643.194" y="765.539" class="st0" width="74.748" height="208.609"/>
		<rect x="643.194" y="340.143" class="st0" width="74.748" height="207.643"/>
		<rect x="643.194" y="597.365" class="st0" width="74.748" height="118.596"/>
	</g>
</g>
</svg>
